<mxfile host="65bd71144e">
    <diagram id="In-qE-KRg8DmDGoYVtMn" name="Page-1">
        <mxGraphModel dx="652" dy="699" grid="1" gridSize="10" guides="1" tooltips="1" connect="1" arrows="1" fold="1" page="1" pageScale="1" pageWidth="827" pageHeight="1169" math="0" shadow="0">
            <root>
                <mxCell id="0"/>
                <mxCell id="1" parent="0"/>
                <mxCell id="6" value="&lt;font face=&quot;Lucida Console&quot;&gt;network &lt;br&gt;&lt;br&gt;connection&lt;/font&gt;" style="text;html=1;strokeColor=none;fillColor=none;align=center;verticalAlign=middle;whiteSpace=wrap;rounded=0;fontSize=20;rotation=314;" parent="1" vertex="1">
                    <mxGeometry x="160" y="260" width="210" height="70" as="geometry"/>
                </mxCell>
                <mxCell id="11" value="&lt;font face=&quot;Lucida Console&quot;&gt;network &lt;br&gt;&lt;br&gt;connection&lt;/font&gt;" style="text;html=1;strokeColor=none;fillColor=none;align=center;verticalAlign=middle;whiteSpace=wrap;rounded=0;fontSize=20;rotation=47;" parent="1" vertex="1">
                    <mxGeometry x="389.9977671334784" y="259.9957454737492" width="210" height="70" as="geometry"/>
                </mxCell>
                <mxCell id="2" value="&lt;font style=&quot;font-size: 20px&quot;&gt;redis&lt;br&gt;server&lt;/font&gt;" style="rounded=1;whiteSpace=wrap;html=1;fillColor=none;fontFamily=Verdana;align=center;verticalAlign=bottom;" parent="1" vertex="1">
                    <mxGeometry x="300" y="20" width="160" height="240" as="geometry"/>
                </mxCell>
                <mxCell id="3" value="&lt;span style=&quot;font-size: 20px&quot;&gt;game jacques&lt;/span&gt;" style="rounded=1;whiteSpace=wrap;html=1;fillColor=none;fontFamily=Verdana;verticalAlign=top;" parent="1" vertex="1">
                    <mxGeometry x="120" y="360" width="160" height="60" as="geometry"/>
                </mxCell>
                <mxCell id="4" value="&lt;span style=&quot;font-size: 20px&quot;&gt;game pierre&lt;/span&gt;" style="rounded=1;whiteSpace=wrap;html=1;fillColor=none;fontFamily=Verdana;verticalAlign=top;" parent="1" vertex="1">
                    <mxGeometry x="480" y="360" width="160" height="60" as="geometry"/>
                </mxCell>
                <mxCell id="5" value="" style="shape=flexArrow;endArrow=classic;startArrow=classic;html=1;fontSize=20;entryX=0.043;entryY=0.971;entryDx=0;entryDy=0;exitX=0.5;exitY=0;exitDx=0;exitDy=0;startSize=5;endSize=5;startWidth=5;endWidth=5;strokeWidth=1;fontFamily=Verdana;entryPerimeter=0;" parent="1" source="3" target="2" edge="1">
                    <mxGeometry width="100" height="100" relative="1" as="geometry">
                        <mxPoint x="220" y="360" as="sourcePoint"/>
                        <mxPoint x="320" y="260" as="targetPoint"/>
                        <Array as="points"/>
                    </mxGeometry>
                </mxCell>
                <mxCell id="10" value="" style="shape=flexArrow;endArrow=classic;startArrow=classic;html=1;fontSize=20;entryX=0.5;entryY=0;entryDx=0;entryDy=0;exitX=0.958;exitY=0.972;exitDx=0;exitDy=0;startSize=5;endSize=5;startWidth=5;endWidth=5;strokeWidth=1;fontFamily=Verdana;exitPerimeter=0;" parent="1" source="2" target="4" edge="1">
                    <mxGeometry width="100" height="100" relative="1" as="geometry">
                        <mxPoint x="440.9977671334784" y="257.9957454737492" as="sourcePoint"/>
                        <mxPoint x="571.9977671334784" y="349.9957454737492" as="targetPoint"/>
                        <Array as="points"/>
                    </mxGeometry>
                </mxCell>
                <mxCell id="25" value="" style="group;fillColor=#E6E6E6;" parent="1" vertex="1" connectable="0">
                    <mxGeometry x="315" y="53" width="130" height="150" as="geometry"/>
                </mxCell>
                <mxCell id="20" value="H-table" style="swimlane;fontFamily=Verdana;fontSize=20;fillColor=none;fontStyle=0;container=0;" parent="25" vertex="1">
                    <mxGeometry width="130" height="150" as="geometry"/>
                </mxCell>
                <mxCell id="21" value="&lt;div style=&quot;text-align: left&quot;&gt;&lt;span&gt;'jacques':&lt;/span&gt;&lt;/div&gt;&lt;span style=&quot;font-size: 12px&quot;&gt;&lt;div style=&quot;text-align: right&quot;&gt;&lt;span&gt;{'position': [1, 4],&lt;/span&gt;&lt;/div&gt;&lt;/span&gt;&lt;div style=&quot;text-align: right&quot;&gt;&lt;span&gt;&amp;nbsp; 'xp': 12}&lt;/span&gt;&lt;/div&gt;" style="text;html=1;align=center;verticalAlign=middle;resizable=0;points=[];autosize=1;strokeColor=none;fillColor=none;fontSize=12;fontFamily=Verdana;" parent="25" vertex="1">
                    <mxGeometry x="-2.57936507936508" y="35.06578947368421" width="130" height="50" as="geometry"/>
                </mxCell>
                <mxCell id="24" value="&lt;div style=&quot;text-align: left&quot;&gt;&lt;span&gt;'pierre':&lt;/span&gt;&lt;/div&gt;&lt;span style=&quot;font-size: 12px&quot;&gt;&lt;div style=&quot;text-align: right&quot;&gt;&lt;span&gt;{'position': [3, 7],&lt;/span&gt;&lt;/div&gt;&lt;/span&gt;&lt;div style=&quot;text-align: right&quot;&gt;&lt;span&gt;&amp;nbsp; 'xp': 8}&lt;/span&gt;&lt;/div&gt;" style="text;html=1;align=center;verticalAlign=middle;resizable=0;points=[];autosize=1;strokeColor=none;fillColor=none;fontSize=12;fontFamily=Verdana;" parent="25" vertex="1">
                    <mxGeometry x="-2.57936507936508" y="80.0657894736842" width="130" height="50" as="geometry"/>
                </mxCell>
                <mxCell id="31" value="&lt;font face=&quot;Times New Roman&quot;&gt;&lt;i&gt;process&lt;/i&gt;&lt;/font&gt;" style="text;html=1;strokeColor=none;fillColor=none;align=center;verticalAlign=middle;whiteSpace=wrap;rounded=0;dashed=1;fontFamily=Verdana;fontSize=12;" parent="1" vertex="1">
                    <mxGeometry x="344" y="20" width="60" height="30" as="geometry"/>
                </mxCell>
                <mxCell id="32" value="&lt;font face=&quot;Times New Roman&quot;&gt;&lt;i&gt;process&lt;/i&gt;&lt;/font&gt;" style="text;html=1;strokeColor=none;fillColor=none;align=center;verticalAlign=middle;whiteSpace=wrap;rounded=0;dashed=1;fontFamily=Verdana;fontSize=12;" parent="1" vertex="1">
                    <mxGeometry x="174" y="390" width="60" height="30" as="geometry"/>
                </mxCell>
                <mxCell id="33" value="&lt;font face=&quot;Times New Roman&quot;&gt;&lt;i&gt;process&lt;/i&gt;&lt;/font&gt;" style="text;html=1;strokeColor=none;fillColor=none;align=center;verticalAlign=middle;whiteSpace=wrap;rounded=0;dashed=1;fontFamily=Verdana;fontSize=12;" parent="1" vertex="1">
                    <mxGeometry x="534" y="390" width="60" height="30" as="geometry"/>
                </mxCell>
            </root>
        </mxGraphModel>
    </diagram>
</mxfile>